<?xml version="1.0" encoding="UTF-8"?>
<svg width="225px" height="113px" viewBox="0 0 225 113" version="1.1" xmlns="http://www.w3.org/2000/svg" xmlns:xlink="http://www.w3.org/1999/xlink">
    <!-- Generator: Sketch 53.2 (72643) - https://sketchapp.com -->
    <title>noun_react_2998697</title>
    <desc>Created with Sketch.</desc>
    <g id="Page-1" stroke="none" stroke-width="1" fill="none" fill-rule="evenodd">
        <g id="A4" transform="translate(-170.000000, -421.000000)" fill="#FFFFFF" fill-rule="nonzero">
            <g id="Group" transform="translate(-43.000000, -9.000000)">
                <g id="noun_react_2998697" transform="translate(0.000000, 430.000000)">
                    <g transform="translate(213.000000, -112.000000)" id="Shape">
                        <path d="M31.8796875,145.894676 C23.8951758,165.92059 23.6552871,182.753596 32.9504238,192.049559 C37.715748,196.814883 44.4534609,199.077293 52.5919219,199.077293 C61.7233048,198.757022 70.7150568,196.737991 79.1067656,193.123582 C87.6212227,212.928768 99.3539531,225 112.5,225 C125.646047,225 137.379199,212.928346 145.893604,193.122598 C154.285267,196.736682 163.27688,198.755506 172.408096,199.075711 C180.543129,199.075711 187.285992,196.813213 192.049594,192.049611 C201.34473,182.753613 201.104842,165.920607 193.12033,145.894729 C212.927484,137.380166 225,125.646785 225,112.5 C225,99.3532148 212.927484,87.619834 193.120313,79.1053242 C201.104824,59.0794102 201.344713,42.2464043 192.049576,32.9504414 C182.752734,23.6544082 165.919922,23.8939453 145.894148,31.8783691 C137.379744,12.0720938 125.646469,0 112.5,0 C99.3532148,0 87.619834,12.0725156 79.1054297,31.8794414 C59.0800605,23.8947188 42.2471602,23.6544961 32.9504063,32.9503887 C23.6552695,42.2463867 23.8951582,59.0793926 31.8796699,79.1052715 C12.0725156,87.619834 0,99.3532148 0,112.5 C0,125.646785 12.0725156,137.380166 31.8796875,145.894676 Z M37.9217461,187.078271 C30.6782754,179.834063 31.4259785,165.651398 38.4020684,148.472701 C48.2347751,151.983316 58.3586716,154.617527 68.6554629,156.344555 C70.3824606,166.641156 73.0165886,176.764872 76.5270703,186.597422 C59.3498848,193.572229 45.168082,194.319826 37.9217109,187.078289 L37.9217461,187.078271 Z M65.1557109,120.171656 C63.1031602,117.611959 61.1362676,115.054746 59.2550332,112.5 C61.1351543,109.94707 63.1020352,107.389852 65.1557109,104.828344 C65.0868047,107.364217 65.0390625,109.915857 65.0390625,112.5 C65.0390625,115.084143 65.0868047,117.635783 65.1557109,120.171656 L65.1557109,120.171656 Z M54.9314473,106.434861 C49.7717678,98.9887508 45.2016508,91.1509514 41.2628027,82.9929902 C49.8164729,80.0096396 58.5901239,77.699033 67.5036914,76.0822559 C66.7351875,81.574834 66.1421719,87.2559316 65.7246445,93.1255488 C61.8724453,97.5615996 58.274707,101.998043 54.9314297,106.434879 L54.9314473,106.434861 Z M65.7246094,131.874451 C66.1374492,137.735186 66.7304648,143.416283 67.5036562,148.917744 C58.5900819,147.300956 49.8164249,144.990338 41.26275,142.006975 C45.201598,133.849013 49.7717151,126.011214 54.9313945,118.565104 C58.2717305,122.992365 61.8694687,127.428814 65.7246094,131.874451 Z M83.9115176,83.9115176 C87.8749629,79.9480723 91.8919453,76.1766387 95.9624648,72.5972168 C101.366156,72.2546426 106.878668,72.0790078 112.5,72.0703125 C118.112039,72.0703125 123.624586,72.2459414 129.037641,72.5971992 C133.095926,76.1721563 137.112873,79.9435898 141.088482,83.9115 C145.0544,87.877418 148.826016,91.897084 152.403328,95.970498 C152.745469,101.371623 152.920922,106.881457 152.929688,112.5 C152.929688,118.109145 152.754234,123.618973 152.403328,129.029484 C148.826438,133.090242 145.054822,137.109908 141.088482,141.088482 C137.122564,145.0544 133.102898,148.826016 129.029484,152.403328 C123.628371,152.745469 118.118543,152.920922 112.5,152.929688 C106.890855,152.929688 101.381027,152.754234 95.9705156,152.403328 C91.9097578,148.826332 87.8900918,145.054717 83.9115176,141.088482 C79.9455996,137.122564 76.1739844,133.102898 72.5966719,129.029484 C72.2545313,123.628371 72.0790781,118.118543 72.0703125,112.5 C72.0703125,106.890855 72.2457656,101.381027 72.5966719,95.9705156 C76.1735625,91.9097578 79.9451777,87.8900918 83.9115176,83.9115176 Z M73.5983086,84.4468945 C73.9569023,81.1858594 74.3743242,77.9870918 74.8505742,74.8505918 C77.9848945,74.3748809 81.1835918,73.9574941 84.446666,73.5984316 C82.6050586,75.3426211 80.7673184,77.1130898 78.9401953,78.9402129 C77.1130723,80.7673359 75.342498,82.6051641 73.5983086,84.4468945 L73.5983086,84.4468945 Z M104.809148,65.1562207 C107.37484,63.0984082 109.938422,61.1295586 112.499895,59.2496719 C115.058941,61.1341875 117.622488,63.1030371 120.190535,65.1562207 C117.648439,65.0869102 115.090576,65.0390625 112.5,65.0390625 C109.909424,65.0390625 107.351227,65.0869102 104.809148,65.1562207 Z M140.55293,73.5983086 C143.813965,73.9569023 147.012803,74.3743242 150.149443,74.8505742 C150.625225,77.985 151.042646,81.1837676 151.401709,84.446877 C149.65752,82.6051641 147.886945,80.7673184 146.059822,78.9401953 C144.232699,77.1130723 142.394607,75.3426035 140.55293,73.5983086 Z M151.401709,140.553105 C151.043115,143.814141 150.625693,147.012908 150.149443,150.149408 C147.018662,150.624697 143.823615,151.041691 140.564303,151.400391 C142.402576,149.659102 144.234416,147.8789 146.059822,146.059787 C147.886928,144.232682 149.657502,142.394836 151.401709,140.553105 L151.401709,140.553105 Z M120.171762,159.844307 C117.61207,161.896846 115.054746,163.863797 112.499789,165.74516 C109.946859,163.865039 107.389605,161.898088 104.828027,159.844307 C107.364006,159.913301 109.915752,159.960938 112.5,159.960938 C115.084248,159.960938 117.635889,159.913195 120.171762,159.844307 Z M84.4360488,151.400391 C81.1787754,151.042043 77.983623,150.625049 74.8505918,150.149408 C74.3748105,147.014982 73.9573887,143.816215 73.5983262,140.553105 C75.3425156,142.394818 77.1130898,144.232664 78.9402129,146.059787 C80.7641074,147.883693 82.5960527,149.663895 84.4360488,151.400391 Z M76.0822559,157.496309 C81.5719863,158.264391 87.250043,158.85716 93.1164258,159.274617 C97.5528047,163.127555 101.989998,166.727186 106.428006,170.07351 C98.9839485,175.23122 91.1484001,179.799606 82.9928496,183.736986 C80.0095469,175.183384 77.6989872,166.409803 76.0822559,157.496309 Z M112.5,217.96875 C102.257719,217.96875 92.7591504,207.414369 85.5450879,190.33868 C94.9790987,185.863308 103.999342,180.563337 112.50065,174.500561 C121.001621,180.563086 130.021547,185.862772 139.455246,190.337818 C132.241166,207.414158 122.742492,217.96875 112.5,217.96875 Z M142.006641,183.738287 C133.851319,179.800597 126.015982,175.231998 118.5721,170.07416 C122.999994,166.732875 127.437404,163.133027 131.88433,159.274617 C137.741525,158.861883 143.41933,158.269113 148.917744,157.496309 C147.300924,166.41026 144.990192,175.184279 142.006641,183.738287 L142.006641,183.738287 Z M187.078271,187.078289 C179.833939,194.323359 165.65117,193.575674 148.472279,186.599145 C151.983063,176.766057 154.617415,166.641767 156.344555,156.344572 C166.641346,154.617544 176.765243,151.983333 186.597949,148.472719 C193.574057,165.651398 194.32176,179.834063 187.078289,187.078289 L187.078271,187.078289 Z M159.844307,104.828344 C161.896846,107.388035 163.863732,109.945254 165.744967,112.5 C163.864846,115.05293 161.897965,117.610148 159.844307,120.171656 C159.913195,117.635783 159.960938,115.084143 159.960938,112.5 C159.960938,109.915857 159.913195,107.364217 159.844307,104.828344 Z M159.275391,93.1255488 C158.862551,87.2648145 158.269535,81.5837168 157.496344,76.0822559 C166.409918,77.6990436 175.183575,80.009662 183.73725,82.9930254 C179.798402,91.1509865 175.228285,98.988786 170.068605,106.434896 C166.72827,102.007635 163.130531,97.5711855 159.275391,93.1255488 Z M159.275391,131.874451 C163.127578,127.4384 166.725316,123.001957 170.068605,118.565121 C175.228285,126.011232 179.798402,133.849031 183.73725,142.006992 C175.183563,144.990351 166.409894,147.300964 157.496309,148.917744 C158.264813,143.425119 158.85784,137.744021 159.275391,131.874451 Z M217.96875,112.5 C217.96875,122.743898 207.411328,132.243961 190.330664,139.45834 C185.860471,130.023284 180.564647,121.002031 174.505078,112.5 C180.564647,103.997969 185.860471,94.9767163 190.330664,85.5416602 C207.411328,92.7560391 217.96875,102.256102 217.96875,112.5 Z M172.342881,32.8182188 C178.555307,32.8182188 183.61074,34.4558672 187.078289,37.9217109 C194.32176,45.1659199 193.574057,59.348584 186.597967,76.5272813 C176.76526,73.0166667 166.641364,70.3824555 156.344572,68.6554277 C154.617455,58.3584172 151.983138,48.2343092 148.472402,38.4014004 C156.009678,35.0627955 164.106753,33.1689314 172.342881,32.8182188 L172.342881,32.8182188 Z M148.917744,67.5036914 C143.425014,66.7351875 137.743764,66.1421719 131.873994,65.7246445 C127.439443,61.8738633 123.004482,58.2772383 118.569111,54.9347695 C126.013991,49.7742317 133.850358,45.2027357 142.006799,41.2619414 C144.990332,49.8158651 147.301011,58.5898113 148.917744,67.5036914 Z M112.5,7.03125 C122.74367,7.03125 132.243416,17.5882148 139.457813,34.6679824 C130.022546,39.1385144 121.001111,44.4346905 112.498928,50.494623 C103.997171,44.4352482 94.9762881,39.1394725 85.5416602,34.6691602 C92.7560391,17.5886719 102.256102,7.03125 112.5,7.03125 Z M82.9932363,41.2621348 C91.1492628,45.2028398 98.9852598,49.7741447 106.429834,54.9344004 C102.004084,58.2740684 97.569123,61.8708398 93.1249512,65.7247148 C87.2645332,66.1374492 81.5836523,66.7304648 76.0823086,67.5037617 C77.6990805,58.5899323 80.0097528,49.8160305 82.9932363,41.2621348 L82.9932363,41.2621348 Z M37.9217109,37.9217109 C41.3892773,34.4541445 46.4429883,32.8182188 52.6571191,32.8182188 C60.8932296,33.1689771 68.9902747,35.0629141 76.5274922,38.4016113 C73.0167926,48.2344514 70.3825108,58.3584894 68.6554277,68.6554277 C58.3586424,70.3824565 48.2347518,73.0166677 38.4020508,76.5272813 C31.4259434,59.3486016 30.6782402,45.1659375 37.9217109,37.9217109 Z M34.6693359,85.5416602 C39.1395294,94.9767163 44.4353528,103.997969 50.4949219,112.5 C44.4353528,121.002031 39.1395294,130.023284 34.6693359,139.45834 C17.5886719,132.243961 7.03125,122.743898 7.03125,112.5 C7.03125,102.256102 17.5886719,92.7560391 34.6693359,85.5416602 Z"></path>
                        <path d="M113,143 C129.568542,143 143,129.568542 143,113 C143,96.4314575 129.568542,83 113,83 C96.4314575,83 83,96.4314575 83,113 C83.0184783,129.560883 96.4391175,142.981522 113,143 Z M113,90.0588235 C125.670062,90.0588235 135.941176,100.329938 135.941176,113 C135.941176,125.670062 125.670062,135.941176 113,135.941176 C100.329938,135.941176 90.0588235,125.670062 90.0588235,113 C90.0734591,100.336005 100.336005,90.0734591 113,90.0588235 L113,90.0588235 Z"></path>
                        <path d="M113,127 C120.731986,127 127,120.731986 127,113 C127,105.268014 120.731986,99 113,99 C105.268014,99 99,105.268014 99,113 C99.0088434,120.72832 105.27168,126.991157 113,127 L113,127 Z M113,106 C116.865993,106 120,109.134007 120,113 C120,116.865993 116.865993,120 113,120 C109.134007,120 106,116.865993 106,113 C106.003859,109.135606 109.135606,106.003859 113,106 L113,106 Z"></path>
                    </g>
                </g>
            </g>
        </g>
    </g>
</svg>